# xmcd CD database file
#
# Track frame offsets:
#	150
#	16097
#	37287
#	47312
#	64052
#	71212
#	83225
#	96835
#	111280
#	129170
#	153272
#	168050
#	179822
#	200147
#
# Disc length: 2858 seconds
#
# Revision: 0
# Processed by: cddbd v1.5.1PL0 Copyright (c) Steve Scherf et al.
# Submitted via: CDex 1.51
#
DISCID=bd0b280e
DTITLE=Hajime Tachibana and Low Powers - Low Powers
DYEAR=1997
DGENRE=Pop
TTITLE0=Low Power 16
TTITLE1=真摯
TTITLE2=カウント禁止
TTITLE3=Sleeper
TTITLE4=ついに幸せだ
TTITLE5=Eight Days A Week
TTITLE6=スピード
TTITLE7=ありがとう
TTITLE8=10篇の詩によるギタリストを撃て!
TTITLE9=P
TTITLE10=泣いてどうなる!?
TTITLE11=Goo Goo Itch
TTITLE12=メドレー?.愛のテーマ〜Do You Love Me?〜?. Jet Boy
TTITLE13=ネオンボーイ(Low Powersのテーマ)
EXTD=YEAR: 1997
EXTT0=
EXTT1=
EXTT2=
EXTT3=
EXTT4=
EXTT5=
EXTT6=
EXTT7=
EXTT8=
EXTT9=
EXTT10=
EXTT11=
EXTT12=
EXTT13=
PLAYORDER=
